<svg width="139" height="18" viewBox="0 0 139 18" fill="none" xmlns="http://www.w3.org/2000/svg">
<path fill-rule="evenodd" clip-rule="evenodd" d="M26.4373 2.9177H26.9766C27.1482 2.9177 27.2953 2.94841 27.3933 3.04055C27.4914 3.10197 27.5649 3.22482 27.6139 3.31696C27.663 3.43981 27.6875 3.56266 27.712 3.68551C27.7365 3.83908 27.7365 3.96193 27.7365 4.05406V6.8182C27.7365 7.15604 27.7855 7.43245 27.9081 7.64744C28.0307 7.86243 28.1777 8.0467 28.3738 8.16955C28.5454 8.2924 28.766 8.38454 28.9621 8.44597C29.1827 8.50739 29.3788 8.53811 29.5504 8.53811V8.56882C29.3981 8.56882 29.2265 8.59301 29.0356 8.61992L28.9621 8.63024C28.7415 8.66096 28.5454 8.75309 28.3738 8.87595C28.2022 8.9988 28.0307 9.18307 27.9081 9.42877C27.7855 9.67447 27.7365 10.0123 27.7365 10.4116V13.0221C27.7365 13.145 27.7365 13.2678 27.712 13.3907C27.6875 13.5443 27.663 13.6671 27.5894 13.7593C27.5404 13.8821 27.4424 13.9742 27.3198 14.0357C27.1972 14.0971 27.0501 14.1585 26.8295 14.1585H26.4128V17.1991H28.1532C28.3983 17.1991 28.6435 17.1376 28.8886 17.0455C29.1337 16.9534 29.3788 16.7998 29.5995 16.6155C29.8201 16.4312 29.9917 16.1548 30.1387 15.8477C30.2858 15.5406 30.3348 15.172 30.3348 14.7421V11.3022C30.3348 11.0258 30.3839 10.8108 30.4819 10.6573C30.58 10.5037 30.7025 10.3809 30.8496 10.2887C30.9967 10.1966 31.1437 10.1352 31.2908 10.1044C31.4379 10.0737 31.5605 10.0737 31.634 10.0737V7.15604C31.5359 7.15604 31.4379 7.15604 31.2908 7.12533C31.1437 7.09461 30.9967 7.0639 30.8741 6.97176C30.727 6.87962 30.629 6.78749 30.5064 6.63392C30.3839 6.48036 30.3593 6.29609 30.3593 6.05038V2.45701C30.3593 2.02703 30.2858 1.65848 30.1632 1.35135C30.0162 1.04423 29.8446 0.798528 29.624 0.583539C29.4034 0.399264 29.1827 0.245701 28.9131 0.153563C28.668 0.0614252 28.4229 0 28.1777 0H26.4373V2.9177ZM5.19664 2.91791H4.65736C4.48578 2.91791 4.3387 2.94862 4.24065 3.04076C4.1426 3.10219 4.06907 3.22504 4.02004 3.31718C3.97102 3.44002 3.9465 3.56287 3.92199 3.68572L3.92199 3.68573C3.89748 3.83929 3.89748 3.96214 3.89748 4.05428V6.81841C3.89748 7.15625 3.84845 7.43267 3.72589 7.64765C3.60333 7.86264 3.45625 8.04692 3.26016 8.16977C3.08857 8.29262 2.86796 8.38476 2.67186 8.44618C2.45124 8.50761 2.25515 8.53832 2.08356 8.53832V8.56903C2.23584 8.56903 2.40744 8.59322 2.59834 8.62014H2.59835L2.67186 8.63046C2.89247 8.66117 3.08857 8.75331 3.26016 8.87616C3.43174 8.99901 3.60333 9.18328 3.72589 9.42899C3.84845 9.67469 3.89748 10.0125 3.89748 10.4118V13.0224C3.89748 13.1452 3.89748 13.2681 3.92199 13.3909C3.9465 13.5445 3.97102 13.6673 4.04455 13.7595C4.09358 13.8823 4.19163 13.9745 4.31419 14.0359C4.43675 14.0973 4.58383 14.1587 4.80444 14.1587H5.22115V17.1993H3.48077C3.23564 17.1993 2.99052 17.1378 2.74539 17.0457C2.50027 16.9536 2.25515 16.8 2.03453 16.6157C1.81392 16.4315 1.64233 16.155 1.49526 15.8479C1.34818 15.5408 1.29916 15.1722 1.29916 14.7423V11.3025C1.29916 11.026 1.25013 10.8111 1.15208 10.6575C1.05404 10.5039 0.931473 10.3811 0.784398 10.2889C0.637324 10.1968 0.490249 10.1354 0.343174 10.1047C0.1961 10.074 0.0735373 10.0739 0 10.0739V7.15625H4.56676e-06C0.0980528 7.15625 0.196102 7.15625 0.343174 7.12554C0.490249 7.09483 0.637324 7.06411 0.759886 6.97198C0.90696 6.87984 1.00501 6.7877 1.12757 6.63414C1.25013 6.48057 1.27465 6.2963 1.27465 6.0506V2.45722C1.27465 2.02725 1.34818 1.65869 1.47075 1.35157C1.61782 1.04444 1.78941 0.798742 2.01002 0.583753C2.23063 0.399478 2.45124 0.245915 2.72088 0.153777C2.96601 0.0616391 3.21113 0.000213846 3.45625 0.000213846H5.19664V2.91791ZM21.015 10.86L10.8747 0.614217H8.46317V3.05082L18.6035 13.2966L16.797 15.1219L17.9985 16.3359L20.0776 14.2092L22.8215 16.9386C23.1538 17.2744 23.6907 17.2744 24.023 16.9386L24.628 16.3273C24.9603 15.9915 24.9603 15.4491 24.628 15.1133L21.9182 12.3753L24.023 10.2487L22.8215 9.0347L21.015 10.86ZM23.1709 3.04221L19.1318 7.1233L16.7203 4.69531L20.7593 0.614217H23.1709V3.04221ZM12.5022 8.95721L14.9138 11.4282L13.0306 13.2966L14.8371 15.1219L13.6356 16.3359L11.5564 14.2092L8.81254 16.9472C8.48021 17.283 7.94337 17.283 7.61104 16.9472L7.00603 16.3359C6.6737 16.0001 6.6737 15.4577 7.00603 15.1219L9.71579 12.3753L7.61104 10.2487L8.81254 9.0347L10.619 10.86L12.5022 8.95721Z" fill="#FFDF00"/>
<path d="M44.7661 16.22C49.1221 16.22 51.4761 13.932 51.4761 10.28V10.082H47.9561V10.192C47.9561 12.304 47.0761 13.03 44.7441 13.03C42.2581 13.03 41.2241 12.128 41.2241 8.63004C41.2241 5.13204 42.2581 4.23004 44.7441 4.23004C47.0761 4.23004 47.9561 4.95604 47.9561 7.06804V7.17804H51.4761V6.98004C51.4761 3.32804 49.1221 1.04004 44.7661 1.04004C40.3441 1.04004 37.7041 4.03204 37.7041 8.63004C37.7041 13.228 40.3441 16.22 44.7661 16.22Z" fill="#FFDF00"/>
<path d="M59.3662 16.22C63.5462 16.22 65.1302 14.108 65.1302 11.754C65.1302 9.59804 64.0742 7.97004 60.9722 7.37604L58.3542 6.87004C56.6382 6.54004 56.2422 6.32004 56.2422 5.37404C56.2422 4.45004 56.8362 4.03204 58.7282 4.03204C60.9062 4.03204 61.5442 4.53804 61.5442 6.07804V6.32004H64.8002V6.14404C64.8002 3.21804 63.0402 1.04004 58.8382 1.04004C54.6142 1.04004 52.9642 3.26204 52.9642 5.50604C52.9642 7.79404 54.1522 9.22404 56.9682 9.70804L59.5642 10.17C61.6322 10.522 61.8522 10.874 61.8522 11.864C61.8522 12.854 61.3902 13.228 59.5202 13.228C56.8582 13.228 56.2642 12.766 56.2642 11.138V10.918H53.0302V11.204C53.0302 14.46 55.0322 16.22 59.3662 16.22Z" fill="#FFDF00"/>
<path d="M72.9873 16.22C77.1673 16.22 78.7513 14.108 78.7513 11.754C78.7513 9.59804 77.6953 7.97004 74.5933 7.37604L71.9753 6.87004C70.2593 6.54004 69.8633 6.32004 69.8633 5.37404C69.8633 4.45004 70.4573 4.03204 72.3493 4.03204C74.5273 4.03204 75.1653 4.53804 75.1653 6.07804V6.32004H78.4213V6.14404C78.4213 3.21804 76.6613 1.04004 72.4593 1.04004C68.2353 1.04004 66.5853 3.26204 66.5853 5.50604C66.5853 7.79404 67.7733 9.22404 70.5893 9.70804L73.1853 10.17C75.2533 10.522 75.4733 10.874 75.4733 11.864C75.4733 12.854 75.0113 13.228 73.1413 13.228C70.4793 13.228 69.8853 12.766 69.8853 11.138V10.918H66.6513V11.204C66.6513 14.46 68.6533 16.22 72.9873 16.22Z" fill="#FFDF00"/>
<path d="M87.691 16C91.057 16 92.773 14.438 92.773 11.952C92.773 9.97204 91.607 8.47604 89.231 8.30004V8.08004C91.189 7.83804 92.179 6.69404 92.179 4.93404C92.179 2.38204 90.485 1.26004 87.339 1.26004H80.079V16H87.691ZM83.379 4.23004H87.119C88.329 4.23004 88.879 4.47204 88.879 5.66004C88.879 6.82604 88.351 7.09004 87.119 7.09004H83.379V4.23004ZM83.379 9.77404H87.581C88.813 9.77404 89.451 9.99404 89.451 11.424C89.451 12.81 88.791 13.03 87.581 13.03H83.379V9.77404Z" fill="#FFDF00"/>
<path d="M97.4236 16.22C99.4696 16.22 100.592 15.318 101.186 14.504H101.318V16H104.376V9.44404C104.376 6.49604 102.66 4.71404 99.4036 4.71404C96.2796 4.71404 94.2336 6.45204 94.2336 9.09204V9.33404H97.3796V9.09204C97.3796 7.97004 97.9076 7.59604 99.2496 7.59604C100.548 7.59604 101.252 7.83804 101.252 9.13604V9.48804L97.4676 10.06C95.1796 10.412 93.9476 11.468 93.9476 13.184C93.9476 15.186 95.4656 16.22 97.4236 16.22ZM97.0936 12.92C97.0936 12.458 97.4016 12.238 98.0836 12.128L101.252 11.644C101.252 13.36 99.8656 13.712 98.5236 13.712C97.5556 13.712 97.0936 13.514 97.0936 12.92Z" fill="#FFDF00"/>
<path d="M111.35 16.044C112.12 16.044 112.978 15.934 113.506 15.824V13.074H112.142C110.712 13.074 110.382 12.964 110.382 11.996V7.66204H113.506V4.93404H110.382V2.36004H107.786L107.17 4.93404H105.322V7.66204H107.082V12.37C107.082 14.988 108.468 16.044 111.35 16.044Z" fill="#FFDF00"/>
<path d="M119.6 16.044C120.37 16.044 121.228 15.934 121.756 15.824V13.074H120.392C118.962 13.074 118.632 12.964 118.632 11.996V7.66204H121.756V4.93404H118.632V2.36004H116.036L115.42 4.93404H113.572V7.66204H115.332V12.37C115.332 14.988 116.718 16.044 119.6 16.044Z" fill="#FFDF00"/>
<path d="M126.626 16V1.26004H123.348V16H126.626Z" fill="#FFDF00"/>
<path d="M133.695 16.22C136.863 16.22 138.887 14.834 138.887 12.48V12.26H135.631V12.392C135.631 13.074 135.059 13.36 133.739 13.36C131.935 13.36 131.319 12.744 131.253 11.204H138.843C138.909 10.83 138.997 10.192 138.997 9.57604C138.997 6.69404 137.039 4.71404 133.717 4.71404C130.263 4.71404 128.151 6.95804 128.151 10.5C128.151 13.998 129.889 16.22 133.695 16.22ZM133.607 7.42004C135.147 7.42004 135.895 8.05804 135.829 9.20204H131.275C131.407 8.03604 132.023 7.42004 133.607 7.42004Z" fill="#FFDF00"/>
</svg>
